<svg xmlns="http://www.w3.org/2000/svg" xmlns:xlink="http://www.w3.org/1999/xlink" version="1.1" preserveAspectRatio="xMidYMid meet" viewBox="0 0 640 640"><defs><path d="M642.62 320C642.62 496.61 498.65 640 321.31 640C143.97 640 0 496.61 0 320C0 143.39 143.97 0 321.31 0C498.65 0 642.62 143.39 642.62 320Z" id="ajRUD8y9T"/><path d="M629.24 241.23L19 241.23L324.12 15L629.24 241.23Z" id="e4Cgz3EJ3W"/><path d="M352.72 241.23C363.26 241.23 371.79 249.77 371.79 260.3C371.79 333.29 371.79 533.18 371.79 606.17C371.79 616.7 363.26 625.24 352.72 625.24C339.74 625.24 319.85 625.24 306.87 625.24C296.33 625.24 287.8 616.7 287.8 606.17C287.8 533.18 287.8 333.29 287.8 260.3C287.8 249.77 296.33 241.23 306.87 241.23C319.85 241.23 339.74 241.23 352.72 241.23Z" id="bScSoX8BG"/></defs><g><g><use xlink:href="#ajRUD8y9T" opacity="1" fill="#00390e" fill-opacity="1"/></g><g><use xlink:href="#e4Cgz3EJ3W" opacity="1" fill="#ffb571" fill-opacity="1"/><g><use xlink:href="#e4Cgz3EJ3W" opacity="1" fill-opacity="0" stroke="#ffb571" stroke-width="1" stroke-opacity="1"/></g></g><g><use xlink:href="#bScSoX8BG" opacity="1" fill="#ffb571" fill-opacity="1"/></g></g></svg>